# xmcd CD database file
#
# Track frame offsets:
#	150
#	11775
#	23722
#	33825
#	47197
#	58350
#	68872
#	81862
#	89625
#	100800
#	112312
#	122100
#	131700
#	143550
#	157800
#	167287
#
# Disc length: 2404 seconds
#
# Revision: 3
# Processed by: cddbd v1.4PL0 Copyright (c) Steve Scherf et al.
# Submitted via: CDex 1.50Beta6
#
DISCID=d5096210,d9096210
DTITLE=Various Artist - Country Queens Cd1
DYEAR=1900
DGENRE=
TTITLE0=Lynn Anderson - Rodeo Coyboy
TTITLE1=Billie Joe Spears - Cest La Vie
TTITLE2=Loretta Lynn - You´re Looking At Country
TTITLE3=Patti Page - Tennessee Waltz
TTITLE4=Jo Ann Houston - The Race Is On
TTITLE5=Dolly Parton - Honky Tonk Angels
TTITLE6=Connie Smith - Pass Me By If You Are Only Passsing Through
TTITLE7=Susan Raye - I´ve Got A Happy Heart
TTITLE8=Patsy Cline - Just Out Of Reach
TTITLE9=Barbara Fairchild - Cheatin Is
TTITLE10=Molly Bee - Big Daddy Gonna Bring It On Home To Mama
TTITLE11=Barbara Mandrell - Release Me
TTITLE12=Patsy Cline - Today Tormorrow And Forever
TTITLE13=Billie Joe Spears - I´ll Never Be Free
TTITLE14=Donna Fargo - Stickes And Stones
TTITLE15=Dottie West - Divorce
EXTD=
EXTT0=
EXTT1=
EXTT2=
EXTT3=
EXTT4=
EXTT5=
EXTT6=
EXTT7=
EXTT8=
EXTT9=
EXTT10=
EXTT11=
EXTT12=
EXTT13=
EXTT14=
EXTT15=
PLAYORDER=
